<svg xmlns="http://www.w3.org/2000/svg" version="1.1" 
viewBox="0 0 2130 2130">
 <defs>
  <style type="text/css">
    .str0 {stroke:#fff;stroke-width:132.29;stroke-miterlimit:22.9256}
    .fil1 {fill:none;fill-rule:nonzero}
    .fil2 {fill:#fff;fill-rule:nonzero}
    .fil0 {fill:#fff;fill-rule:nonzero;fill-opacity:0.188235}
  </style>
 </defs>
 <g id="Layer_x0020_1">
  <g id="_1866040949856">
   <g>
    <path class="fil0" d="M2063.2 1066.8c0,-552.28 -447.72,-1000 -1000,-1000 -552.28,0 -1000,447.72 -1000,1000 0,552.28 447.72,1000 1000,1000 552.28,0 1000,-447.72 1000,-1000z"/>
    <path id="_1" class="fil1 str0" d="M2063.2 1066.8c0,-552.28 -447.72,-1000 -1000,-1000 -552.28,0 -1000,447.72 -1000,1000 0,552.28 447.72,1000 1000,1000 552.28,0 1000,-447.72 1000,-1000z"/>
   </g>
   <path class="fil2" d="M864.97 705.97c-84.37,0 -154.2,69.83 -154.2,154.2l0 396.46c0,84.36 69.83,154.19 154.2,154.19l396.46 0c84.36,0 154.19,-69.83 154.19,-154.19l0 -396.46c0,-84.37 -69.83,-154.2 -154.19,-154.2l-396.46 0z"/>
  </g>
 </g>
</svg>
